HIERARCHY
ROOT Hips
{
	OFFSET	0.00	0.00	0.00
	CHANNELS 6 Xposition Yposition Zposition Zrotation Xrotation Yrotation
	JOINT Spine
	{
		OFFSET	 0.00	0.01	 0.00
		CHANNELS 3 Zrotation Xrotation Yrotation
		JOINT Spine1
		{
			OFFSET	 0.00	 2.45913012437421	 0.00
			CHANNELS 3 Zrotation Xrotation Yrotation
            JOINT Neck
            {
                OFFSET	 0.00	 2.48462964506057	 0.00
                CHANNELS 3 Zrotation Xrotation Yrotation
                JOINT Head
                {
                    OFFSET	 0.00	 0.927524780924562	 0.00
                    CHANNELS 3 Zrotation Xrotation Yrotation
                    End Site 
                    {
                        OFFSET	 0.00	 1.14999962169752	 0.00
                    }
                }
            }
			JOINT LeftShoulder
			{
				OFFSET	 0.00	 2.48462964506057	 0.00
				CHANNELS 3 Zrotation Xrotation Yrotation
				JOINT LeftUpArm
				{
					OFFSET	 0.00	 1.24881979654096	 0.00
					CHANNELS 3 Zrotation Xrotation Yrotation
					JOINT LeftForeArm
					{
						OFFSET	 0.00	2.59758046908119	 0.00
						CHANNELS 3 Zrotation Xrotation Yrotation
						JOINT LeftHand
						{
							OFFSET	 0.00	2.45542024364365	 0.00
							CHANNELS 3 Zrotation Xrotation Yrotation
							JOINT LeftHandThumb 
							{
								OFFSET	 0.00	0.00	 0.00
								CHANNELS 3 Zrotation Xrotation Yrotation
								End Site
								{
									OFFSET	 0.00	0.00	1.00000003353624
								}
							}
							JOINT L_Wrist_End 
							{
								OFFSET	 0.00	0.99999967115358	 0.00
								CHANNELS 3 Zrotation Xrotation Yrotation
								End Site 
								{
									OFFSET	 0.00	 0.00	 0.00
								}
							}
						}
					}
				}
			}
			JOINT RightShoulder
			{
				OFFSET	 0.00	 2.48462964506057	 0.00
				CHANNELS 3 Zrotation Xrotation Yrotation
				JOINT RightUpArm
				{
					OFFSET	 0.00	 1.24881979654096	 0.00
					CHANNELS 3 Zrotation Xrotation Yrotation
					JOINT RightForeArm
					{
						OFFSET	 0.00	2.59758046908119	 0.00
						CHANNELS 3 Zrotation Xrotation Yrotation
						JOINT RightHand
						{
							OFFSET	 0.00	2.45542024364365	 0.00
							CHANNELS 3 Zrotation Xrotation Yrotation
							JOINT RightHandThumb 
							{
								OFFSET	 0.00	0.00	 0.00
								CHANNELS 3 Zrotation Xrotation Yrotation
								End Site
								{
									OFFSET	 0.00	0.00	1.00000003353624
								}
							}
							JOINT R_Wrist_End 
							{
								OFFSET	 0.00	0.99999967115358	 0.00
								CHANNELS 3 Zrotation Xrotation Yrotation
								End Site 
								{
									OFFSET	 0.00	 0.00	 0.00
								}
							}
						}
					}
				}
			}
		}
	}
	JOINT LeftUpLeg
	{
		OFFSET	 1.2719394002717	 0.00	 0.00
		CHANNELS 3 Zrotation Xrotation Yrotation
		JOINT LeftLowLeg
		{
			OFFSET	 0.00	-4.3429100912261	 0.00
			CHANNELS 3 Zrotation Xrotation Yrotation
			JOINT LeftFoot
			{
				OFFSET	 0.00	-4.48767017425826	 0.00
				CHANNELS 3 Zrotation Xrotation Yrotation
				JOINT LeftToeBase
                {
                    OFFSET	 0.00	0.00	 1.51507020887566
                    CHANNELS 3 Zrotation Xrotation Yrotation
                    End Site 
                    {
                        OFFSET	 0.00	0.00	 0.75000010571191
                    }
                }
			}
		}
	}
	JOINT RightUpLeg
	{
		OFFSET	 -1.2719393604653	 0.00	 0.00
		CHANNELS 3 Zrotation Xrotation Yrotation
		JOINT RightLowLeg
		{
			OFFSET	 0.00	-4.3429100912261	 0.00
			CHANNELS 3 Zrotation Xrotation Yrotation
			JOINT RightFoot
			{
				OFFSET	 0.00	-4.48767017425826	 0.00
				CHANNELS 3 Zrotation Xrotation Yrotation
				JOINT RightToeBase
                {
                    OFFSET	 0.00	0.00	 1.51507020887566
                    CHANNELS 3 Zrotation Xrotation Yrotation
                    End Site 
                    {
                        OFFSET	 0.00	0.00	 0.749999965609858
                    }
                }   
			}
		}
	}
}
MOTION 
Frames:	11 
Frame Time: 0.02 
  4.930459899902344 18.394300537109373 9.362730102539063 135.237 79.8187 842.282 -5.5165 -5.41248 -5.10268 11.7403 -3.51348 -2.73139 -9.77188 51.4342 369.304 119.621 -72.6127 -259.059 -119.436005 -8.63243 7.66979 -43.5893 -2.73124 37.6911 0.0 53.3941 0.0 17.6799 -14.9849 20.2879 0.0 0.0 0.0 0.0 0.0 0.0 116.6978 -7.78113 -7.84271 37.9497 -4.38707 -23.9969 0.0 59.1441 0.0 9.20552 -2.53482 -7.69044 0.0 0.0 0.0 0.0 0.0 0.0 -1.61078 2.9046 -13.4496 0.0 6.76374 0.0 -3.42451 0.91349983 3.46687 0.0 -33.022102 0.0 7.43761 -24.1599 5.96929 0.0 31.2565 0.0 9.18648 7.05502 -9.7437 0.0 -41.738 0.0 
  4.809979858398438 18.414200439453126 9.3522802734375 135.393 79.4311 844.904 -5.35205 -5.37508 -5.09924 11.5475 -3.38234 -2.76809 -8.38974 50.5652 367.644 121.553 -72.2622 -257.472 -119.4693 -8.58414 7.62109 -43.3551 -2.95386 37.8042 0.0 53.7134 0.0 19.1223 -15.3525 21.0767 0.0 0.0 0.0 0.0 0.0 0.0 116.7334 -7.54899 -8.33177 37.9744 -4.11373 -23.7086 0.0 59.1366 0.0 8.54801 -2.80436 -6.83138 0.0 0.0 0.0 0.0 0.0 0.0 -1.10966 3.18455 -14.5622 0.0 6.75887 0.0 -4.03138 0.5936003 2.18049 0.0 -32.378998 0.0 7.68842 -24.2786 6.43314 0.0 25.9228 0.0 9.8766 7.69385 -10.5817 0.0 -40.975403 0.0 
  4.688559875488282 18.4272998046875 9.340900268554687 136.612 79.3147 846.253 -5.27077 -5.08907 -4.94474 11.5154 -3.12572 -2.65353 -7.13695 49.6555 365.998 123.482 -71.9335 -255.698 -119.6691 -8.41858 7.49821 -42.915 -3.24729 37.6284 0.0 54.0254 0.0 18.6762 -15.2286 21.0954 0.0 0.0 0.0 0.0 0.0 0.0 116.6756 -7.26249 -8.51942 37.9173 -4.04453 -23.5497 0.0 59.1285 0.0 8.19911 -2.9522 -6.20626 0.0 0.0 0.0 0.0 0.0 0.0 -0.772973 3.68092 -15.5092 0.0 6.96134 0.0 -4.11538 0.26290035 1.13677 0.0 -32.3583 0.0 7.82012 -24.2651 7.01974 0.0 21.1692 0.0 11.0398 8.472651 -11.1439 0.0 -40.1888 0.0 
  4.566289978027344 18.4368994140625 9.326160278320312 136.405 79.1466 848.906 -5.31999 -5.07259 -4.70803 11.6808 -2.79434 -2.44906 -6.45011 48.4397 364.885 125.357 -71.9842 -254.331 -120.0607 -8.07603 7.43412 -42.573 -3.51994 37.3919 0.0 54.1817 0.0 19.3565 -15.041 21.3378 0.0 0.0 0.0 0.0 0.0 0.0 116.3872 -7.08656 -8.67909 37.9902 -3.91316 -23.4787 0.0 59.0928 0.0 7.79716 -3.03101 -5.20052 0.0 0.0 0.0 0.0 0.0 0.0 -0.562288 3.85066 -16.2831 0.0 7.33473 0.0 -4.08811 -0.10949993 0.0027019 0.0 -32.3838 0.0 7.7701 -24.6045 7.3031 0.0 17.0243 0.0 11.1426 9.23036 -10.8048 0.0 -39.9987 0.0 
  4.4404598999023435 18.466400146484375 9.310369873046875 136.198 79.0507 851.348 -5.70505 -5.00594 -4.61739 11.9909 -2.47551 -2.34886 -5.94844 47.1792 364.067 126.54 -72.0866 -253.463 -120.2078 -8.15515 7.40859 -42.3709 -3.57143 36.9459 0.0 54.2592 0.0 19.9107 -14.9495 21.6569 0.0 0.0 0.0 0.0 0.0 0.0 116.2489 -6.72096 -9.04759 37.8998 -3.80968 -23.871 0.0 59.3308 0.0 6.65564 -3.15901 -4.69849 0.0 0.0 0.0 0.0 0.0 0.0 -0.222228 4.10399 -16.606 0.0 7.69173 0.0 -4.13335 -0.55480003 -1.46952 0.0 -32.1259 0.0 7.90515 -24.8973 7.82845 0.0 13.3783 0.0 10.9936 9.27658 -10.4879 0.0 -39.6497 0.0 
  4.306570129394531 18.476600341796875 9.290390014648438 134.827 78.9621 854.879 -5.82816 -5.22817 -4.46725 11.9186 -2.09621 -2.23152 -5.27462 46.0931 362.88 127.556 -72.1487 -252.373 -120.4563 -8.09399 7.2859 -42.1108 -3.70034 36.3707 0.0 54.2652 0.0 19.7817 -14.6916 21.7964 0.0 0.0 0.0 0.0 0.0 0.0 116.014 -6.42627 -9.39139 38.1252 -3.61483 -23.8755 0.0 59.2719 0.0 6.13855 -3.23355 -4.04247 0.0 0.0 0.0 0.0 0.0 0.0 -0.214871 4.14859 -17.1231 0.0 8.24758 0.0 -4.03202 -0.95009995 -2.41941 0.0 -31.3425 0.0 7.55737 -25.2602 7.69085 0.0 10.0753 0.0 11.5874 8.7992 -8.67748 0.0 -39.456 0.0 
  4.167239990234375 18.485899658203124 9.2672802734375 133.583 78.8957 858.144 -5.81039 -5.5472 -4.21109 11.6406 -1.62857 -2.03555 -4.55587 45.3228 361.336 129.043 -72.0781 -250.368 -120.5846 -7.85472 7.4541 -41.878 -3.69177 35.5573 0.0 54.2234 0.0 19.4039 -14.1869 22.596 0.0 0.0 0.0 0.0 0.0 0.0 115.9353 -6.31902 -9.72689 38.2967 -3.35546 -23.9668 0.0 59.3483 0.0 4.99584 -3.47575 -3.79387 0.0 0.0 0.0 0.0 0.0 0.0 -0.245101 4.22552 -17.2161 0.0 8.95311 0.0 -4.15859 -1.3624992 -3.54218 0.0 -31.3673 0.0 7.20566 -25.553 7.70286 0.0 7.26339 0.0 12.1285 8.26276 -6.94391 0.0 -39.3117 0.0 
  4.024410095214844 18.491099853515625 9.242689819335938 133.849 78.9939 859.883 -5.50329 -5.48486 -4.04864 11.226 -1.39407 -1.94458 -4.44464 44.9971 360.33 130.765 -72.0951 -248.051 -120.7932 -8.16588 7.70966 -41.5233 -3.06067 35.1534 0.0 54.1884 0.0 18.9444 -15.1829 21.925 0.0 0.0 0.0 0.0 0.0 0.0 116.030396 -6.16414 -10.1482 38.3287 -3.07765 -24.2221 0.0 59.5039 0.0 3.26274 -3.99032 -3.58309 0.0 0.0 0.0 0.0 0.0 0.0 -0.211978 4.54222 -17.1712 0.0 9.89854 0.0 -4.27829 -1.7987003 -4.60166 0.0 -31.6539 0.0 6.89459 -25.5626 7.64962 0.0 5.18513 0.0 11.8162 7.87461 -5.37685 0.0 -38.9787 0.0 
  3.875429992675781 18.495 9.215159912109375 133.899 78.9684 861.816 -5.00925 -5.59519 -3.86377 10.7535 -1.25585 -1.84587 -4.78483 44.9618 359.573 132.664 -72.2245 -245.273 -120.8257 -8.14202 7.48767 -41.2608 -3.17659 34.8967 0.0 54.1293 0.0 17.8996 -14.8164 22.355 0.0 0.0 0.0 0.0 0.0 0.0 116.1604 -6.22059 -10.0949 38.37 -3.0314 -24.6761 0.0 59.7663 0.0 1.64511 -4.65991 -4.43799 0.0 0.0 0.0 0.0 0.0 0.0 -0.148799 4.68362 -17.0668 0.0 11.0663 0.0 -3.94604 -2.4386005 -5.4588 0.0 -31.8711 0.0 6.66539 -25.8291 7.7257 0.0 4.18667 0.0 11.2803 7.42179 -4.22174 0.0 -38.8394 0.0 
  3.725469970703125 18.4981005859375 9.185800170898437 134.655 79.0674 863.174 -4.5503 -5.36492 -3.83903 10.5468 -1.43858 -1.86645 -6.22114 45.1038 359.992 134.59 -72.9069 -242.966 -120.9291 -8.23376 7.08996 -41.0861 -3.38277 34.8572 0.0 54.1634 0.0 16.6241 -14.4668 21.8324 0.0 0.0 0.0 0.0 0.0 0.0 116.2643 -6.30677 -9.81372 38.301 -3.17138 -25.1353 0.0 60.1228 0.0 0.418057 -5.17516 -5.76153 0.0 0.0 0.0 0.0 0.0 0.0 -0.0288318 4.87618 -17.121 0.0 12.4411 0.0 -4.02122 -2.984501 -6.41801 0.0 -32.9296 0.0 6.43168 -26.1223 7.47308 0.0 4.39573 0.0 10.8077 7.4985 -3.06497 0.0 -39.295403 0.0 
  3.5639300537109375 18.4943994140625 9.153670043945313 135.656 79.1082 864.043 -4.02595 -5.18539 -3.7624 10.695 -1.91799 -1.80401 -8.39811 45.5956 361.069 136.252 -73.9822 -240.786 -121.2858 -8.40026 7.21027 -40.8824 -3.44139 34.7752 0.0 54.3757 0.0 16.3319 -14.6434 21.9124 0.0 0.0 0.0 0.0 0.0 0.0 116.156204 -6.45048 -9.68768 38.2302 -3.38745 -25.3396 0.0 60.5371 0.0 -0.23838 -5.5117 -7.50366 0.0 0.0 0.0 0.0 0.0 0.0 0.234722 5.18061 -16.8042 0.0 13.7476 0.0 -3.47426 -3.6499996 -7.44991 0.0 -32.552902 0.0 6.40296 -26.5356 7.29895 0.0 5.76445 0.0 10.3814 7.71508 -1.91169 0.0 -40.68 0.0 
